<?xml version="1.0" standalone="no"?>
<!DOCTYPE svg PUBLIC "-//W3C//DTD SVG 1.1//EN" "http://www.w3.org/Graphics/SVG/1.1/DTD/svg11.dtd">
<svg width="1400px" height="1400px" version="1.1" xmlns="http://www.w3.org/2000/svg">

  <path fill="#6699CC" d="M 900 800 v 300 q 0 20 14.5 35 t 35.5 15 h 200 q 21 0 35.5 -15 t 14.5 -35 v -150 h 200 v 200 q 0 82 -59 141 t -141 59 h -300 q -83 0 -141.5 -58.5 t -58.5 -141.5 v -350 h -500 h -100 q -41 0 -70.5 -29.5 t -29.5 -70.5 v -600 q 0 -41 29.5 -70.5 t 70.5 -29.5 h 900 q 41 0 70.5 29.5 t 29.5 70.5 v 600 q 0 41 -29.5 70.5 t -70.5 29.5 h -100 z" />

</svg>
